<?xml version="1.0" encoding="iso-8859-1"?>
<!-- Generator: Adobe Illustrator 19.0.0, SVG Export Plug-In . SVG Version: 6.00 Build 0)  -->
<svg version="1.1" id="Capa_1" xmlns="http://www.w3.org/2000/svg" xmlns:xlink="http://www.w3.org/1999/xlink" x="0px" y="0px"
	 viewBox="0 0 512 512" style="enable-background:new 0 0 512 512;" xml:space="preserve">
<g>
	<g>
		<path d="M426.667,394.667c23.573,0,42.453-19.093,42.453-42.667l0.213-234.667c0-23.573-19.093-42.667-42.667-42.667H85.333
			c-23.573,0-42.667,19.093-42.667,42.667V352c0,23.573,19.093,42.667,42.667,42.667H0c0,23.573,19.093,42.667,42.667,42.667
			h426.667c23.573,0,42.667-19.093,42.667-42.667H426.667z M85.333,117.333h341.333V352H85.333V117.333z M256,416
			c-11.733,0-21.333-9.6-21.333-21.333c0-11.733,9.6-21.333,21.333-21.333s21.333,9.6,21.333,21.333
			C277.333,406.4,267.733,416,256,416z"/>
	</g>
</g>
<g>
</g>
<g>
</g>
<g>
</g>
<g>
</g>
<g>
</g>
<g>
</g>
<g>
</g>
<g>
</g>
<g>
</g>
<g>
</g>
<g>
</g>
<g>
</g>
<g>
</g>
<g>
</g>
<g>
</g>
</svg>
